<svg xmlns="http://www.w3.org/2000/svg" viewBox="0 0 357 122.17"><defs><style>.cls-1{font-size:103.29px;fill:#02032c;font-family:ArialMT, Arial;}.cls-2{fill:#62bf82;}</style></defs><title>logo</title><g id="Layer_2" data-name="Layer 2"><g id="Layer_1-2" data-name="Layer 1"><text class="cls-1" transform="translate(0 88.64) scale(1.07 1)"><tspan xml:space="preserve">GetJ  b</tspan></text><path class="cls-2" d="M268.38,36.2l3.57.71c1.25.46,2.53.87,3.75,1.4a27,27,0,0,1,10.6,41.16c-.95,1.22-2,2.34-3.08,3.53l.15.24,13.42,20.09a3,3,0,0,0,.29.33l0,.13-7,4.62L276.17,87.59l-.34.14a26.56,26.56,0,0,1-24.68-1.41,27.12,27.12,0,0,1-13-27.47,27.09,27.09,0,0,1,27-22.79C266.23,36.06,267.31,36.15,268.38,36.2ZM246.54,59.37a18.71,18.71,0,1,0,22.05-14.65A18.74,18.74,0,0,0,246.54,59.37Z"/></g></g></svg>