<svg xmlns="http://www.w3.org/2000/svg" viewBox="0 0 319 319"><title>instagramThin</title><g id="Layer_2" data-name="Layer 2"><g id="Layer_1-2" data-name="Layer 1"><path d="M231,0H88.06A88.06,88.06,0,0,0,0,88.06V230.94A88.06,88.06,0,0,0,88.06,319H230.93A88.07,88.07,0,0,0,319,230.93V88A88.13,88.13,0,0,0,231,0Zm59.72,230.28a60.47,60.47,0,0,1-60.4,60.4H88A59.79,59.79,0,0,1,28.31,231V88.06A59.75,59.75,0,0,1,88.06,28.31H230.93a59.75,59.75,0,0,1,59.75,59.75V230.28Z"/><path d="M159.56,77.33a82.23,82.23,0,1,0,82.23,82.23A82.32,82.32,0,0,0,159.56,77.33Zm0,136.14a53.91,53.91,0,1,1,53.91-53.91A54,54,0,0,1,159.56,213.47Z"/><path d="M245.24,53.33a20.75,20.75,0,1,0,14.69,6.08A20.85,20.85,0,0,0,245.24,53.33Z"/></g></g></svg>