<svg xmlns="http://www.w3.org/2000/svg" viewBox="0 0 512 419.05"><title>twitter</title><g id="Layer_2" data-name="Layer 2"><g id="Layer_1-2" data-name="Layer 1"><path d="M512,56c-32.21,1.48-31.5,1.36-35.14,1.67L495.93,3.16S436.39,25.06,421.3,29C381.66-6.65,322.73-8.22,280.61,17.67c-34.5,21.21-53,57.63-46.84,100.19-67.14-9.32-123.7-41.14-168.36-94.79l-14.12-17L40.73,25.49C27.39,50,23,78,28.25,104.34a113.29,113.29,0,0,0,11,30.78l-12.12-4.7-1.44,20.25c-1.46,20.57,5.39,44.57,18.32,64.22a114.19,114.19,0,0,0,14.27,17.6l-6.26-1,7.64,23.2c10,30.48,30.9,54.06,58,67.17-27,11.47-48.87,18.79-84.77,30.6L0,363.29l30.34,16.59c11.57,6.32,52.44,27.45,92.82,33.78C212.92,427.74,314,416.27,382,355c57.31-51.61,76.11-125,72.21-201.43-.59-11.57,2.58-22.61,8.92-31.08C475.86,105.52,511.92,56.08,512,56ZM439.17,104.2c-10.54,14.07-15.81,32-14.87,50.58,3.94,77.07-17,136.83-62.33,177.63-52.92,47.66-138.27,66.37-234.17,51.32-17.37-2.72-35.32-8.82-50.17-14.91,30.1-10.36,53.34-19.59,90.87-37.35l52.4-24.8L163.05,303c-27.71-1.77-50.79-15.2-65-37a103.76,103.76,0,0,0,22-3.67l55.18-15.37-55.64-13.62c-27-6.62-42.45-22.8-50.61-35.2a84.86,84.86,0,0,1-11-24.2c5.58,1.5,12.08,2.56,22.57,3.6l51.5,5.09-40.8-31.83c-29.4-22.93-41.18-57.38-32.54-90.5,91.75,95.16,199.48,88,210.32,90.53-2.39-23.18-2.45-23.24-3.07-25.45-13.89-49.09,16.55-74,30.27-82.45C325,25.26,370.49,22.61,402,51.64a26.84,26.84,0,0,0,24.63,6.59,207.33,207.33,0,0,0,20.3-6.17L434,89h16.52C447.4,93.19,443.66,98.2,439.17,104.2Z"/></g></g></svg>